<svg xmlns="http://www.w3.org/2000/svg" viewBox="0 0 64 64">
  <rect x="2" y="2" width="60" height="60" rx="14" fill="#0E0C0A"/>
  <rect x="2" y="2" width="60" height="60" rx="14" fill="none" stroke="#C6A15B" stroke-opacity="0.4" stroke-width="1.5"/>
  <g transform="translate(11,11) scale(1.75)" fill="none" stroke="#C6A15B" stroke-width="2.1" stroke-linecap="round" stroke-linejoin="round">
    <path d="M2 13a2 2 0 0 0 2-2V7a2 2 0 0 1 4 0v13a2 2 0 0 0 4 0V4a2 2 0 0 1 4 0v13a2 2 0 0 0 4 0v-4a2 2 0 0 1 2-2"/>
  </g>
</svg>
